<svg xmlns="http://www.w3.org/2000/svg" viewBox="0 0 211.5 44"><style>circle{fill:#23216d}#plus{fill:#a7a5e0}@media (prefers-color-scheme:dark){circle{fill:#24293f}#plus{fill:#7980a6}}</style><circle cx="21.986" cy="21.158" r="21"/><linearGradient id="h" gradientUnits="userSpaceOnUse" x1="21.986" y1="32" x2="21.986" y2="10.863"><stop offset="0" stop-color="#0094f2"/><stop offset=".6" stop-color="#2dfffe"/><stop offset="1" stop-color="#2dfffe"/></linearGradient><path fill="url(#h)" d="M23.309 10.863v8.326a6.786 6.786 0 00-2.648 0v-8.326h-5.294V25.53c0 3.574 2.963 6.471 6.618 6.471s6.618-2.897 6.618-6.471V10.863h-5.294z"/><g fill="#23216D"><ellipse cx="21.986" cy="25.529" rx="1.765" ry="1.725"/><path d="M29.486 17.333v3.451h-15v-3.45z"/><path d="M20.221 10h3.529v15.529h-3.529z"/></g><path d="M59.229 26.424c0 .576.037 1.104.112 1.584.074.479.213.896.416 1.248.202.352.48.629.832.832.352.203.795.304 1.328.304.555 0 1.002-.101 1.344-.304a2.27 2.27 0 00.816-.832 3.6 3.6 0 00.416-1.248c.074-.48.112-1.008.112-1.584V10.488h4.608v15.936c0 1.451-.203 2.65-.608 3.6-.405.95-.949 1.702-1.632 2.256a5.505 5.505 0 01-2.336 1.12c-.875.192-1.782.288-2.72.288-.939 0-1.845-.085-2.72-.256a5.522 5.522 0 01-2.336-1.04c-.683-.522-1.227-1.264-1.632-2.224s-.608-2.208-.608-3.744V10.488h4.608v15.936zM76.22 16.12v2.016h.064c.469-.853 1.077-1.477 1.824-1.872.747-.395 1.6-.592 2.56-.592 1.408 0 2.49.384 3.248 1.152.757.768 1.136 2.016 1.136 3.744v12.768h-4.416V21.464c0-.896-.149-1.52-.448-1.872-.299-.352-.779-.528-1.44-.528-1.558 0-2.336.95-2.336 2.848v11.424h-4.416V16.12h4.224zm16.352-5.888v3.776h-4.416v-3.776h4.416zm0 5.888v17.216h-4.416V16.12h4.416zm11.313 4.96a4.355 4.355 0 00-.289-1.104 1.962 1.962 0 00-.592-.8c-.256-.202-.597-.304-1.024-.304-.533 0-.971.123-1.312.368-.341.246-.597.608-.768 1.088s-.288 1.088-.352 1.823a30.608 30.608 0 00-.096 2.608c0 1.067.032 1.979.096 2.736.064.757.181 1.381.352 1.872.171.49.411.848.72 1.071.309.225.709.336 1.2.336.746 0 1.291-.319 1.632-.96.341-.64.512-1.664.512-3.071h4.225c0 2.261-.508 3.983-1.521 5.168-1.014 1.184-2.693 1.775-5.04 1.775-1.109 0-2.075-.134-2.896-.399-.821-.267-1.504-.747-2.048-1.44s-.955-1.621-1.232-2.784c-.277-1.162-.416-2.607-.416-4.336 0-1.771.17-3.237.512-4.399.341-1.163.821-2.091 1.44-2.784a4.975 4.975 0 012.208-1.456c.853-.277 1.792-.416 2.816-.416 2.048 0 3.589.598 4.624 1.792 1.035 1.195 1.553 2.816 1.553 4.864h-4.225c0-.427-.026-.843-.079-1.248zm6.383-.256c.234-1.13.618-2.074 1.152-2.832a5.1 5.1 0 012.096-1.728c.864-.395 1.925-.592 3.184-.592 1.323-.021 2.421.155 3.296.528a4.623 4.623 0 012.08 1.712c.513.768.875 1.717 1.088 2.848.214 1.131.32 2.453.32 3.968 0 1.472-.117 2.773-.352 3.904-.235 1.131-.619 2.075-1.152 2.832a4.765 4.765 0 01-2.096 1.68c-.864.362-1.926.544-3.185.544-1.322.021-2.421-.144-3.296-.496a4.456 4.456 0 01-2.08-1.664c-.512-.757-.875-1.706-1.088-2.848-.213-1.141-.319-2.458-.319-3.952 0-1.472.116-2.773.352-3.904zm4.128 6.336c.043.746.144 1.387.304 1.92s.4.949.721 1.248c.319.299.746.447 1.279.447.896 0 1.515-.469 1.856-1.407.341-.939.512-2.485.512-4.641 0-2.154-.171-3.701-.512-4.64-.342-.938-.96-1.408-1.856-1.408-.533 0-.96.149-1.279.448-.32.299-.561.715-.721 1.248-.16.534-.261 1.173-.304 1.92s-.064 1.558-.064 2.432c-.001.876.021 1.686.064 2.433zm20.224 4.352c-.491.811-1.04 1.376-1.648 1.696-.607.319-1.359.479-2.256.479-1.813 0-3.146-.692-4-2.08-.854-1.386-1.28-3.68-1.28-6.88s.427-5.509 1.28-6.928c.854-1.418 2.187-2.128 4-2.128.832 0 1.541.171 2.128.512s1.114.854 1.584 1.536h.064v-7.232h4.416v22.848h-4.225v-1.824h-.063zm-4.336-2.544c.288.949.912 1.424 1.872 1.424.98 0 1.615-.475 1.903-1.424s.433-2.362.433-4.24c0-1.877-.145-3.29-.433-4.24-.288-.949-.923-1.424-1.903-1.424-.96 0-1.584.475-1.872 1.424-.288.95-.433 2.363-.433 4.24.001 1.877.145 3.291.433 4.24zm15.344-2.193c0 .513.037 1.009.112 1.488.074.48.196.907.367 1.28s.395.672.673.896c.276.225.618.336 1.023.336.747 0 1.291-.267 1.632-.8.342-.533.576-1.344.704-2.432h3.968c-.085 2.005-.618 3.53-1.6 4.576-.981 1.045-2.528 1.567-4.64 1.567-1.601 0-2.849-.267-3.744-.8-.896-.533-1.558-1.237-1.984-2.112-.427-.874-.688-1.855-.784-2.943a37.14 37.14 0 01-.144-3.265c0-1.151.08-2.261.24-3.328.16-1.066.479-2.015.96-2.847.479-.832 1.168-1.493 2.063-1.984.896-.49 2.091-.736 3.584-.736 1.28 0 2.331.208 3.152.624s1.467 1.003 1.936 1.76c.47.757.789 1.675.96 2.752.171 1.077.257 2.277.257 3.599v.992h-8.736v1.377zm4.384-5.744c-.063-.5-.176-.927-.336-1.279s-.384-.619-.672-.8-.656-.272-1.104-.272c-.447 0-.815.101-1.104.304-.288.203-.518.47-.688.8s-.293.699-.367 1.104a6.67 6.67 0 00-.112 1.216v.672h4.512a19.294 19.294 0 00-.129-1.745z" fill="#FFF"/><path d="M164.973 10.488c1.173 0 2.16.198 2.96.592.8.395 1.444.912 1.937 1.552.49.64.842 1.371 1.056 2.192.213.822.319 1.659.319 2.512 0 1.173-.176 2.197-.527 3.072-.352.875-.844 1.59-1.473 2.144-.629.556-1.392.972-2.287 1.248-.896.278-1.889.416-2.977.416h-2.464v9.12h-4.608V10.488h8.064zm-1.409 10.336c.917 0 1.658-.277 2.225-.832.564-.554.848-1.418.848-2.592 0-1.152-.246-2.026-.736-2.624-.49-.597-1.312-.896-2.464-.896h-1.92v6.944h2.047zm14.401-10.336v22.848h-4.416V10.488h4.416zm11.871 20.832c-.469.854-1.077 1.461-1.824 1.824-.746.362-1.6.544-2.56.544-1.407 0-2.491-.368-3.248-1.104-.757-.735-1.136-1.968-1.136-3.696V16.12h4.416v11.872c0 .896.148 1.52.447 1.872.299.352.779.528 1.44.528 1.558 0 2.336-.949 2.336-2.849V16.12h4.416v17.216H189.9V31.32h-.064zm10.465-3.04c0 .747.196 1.35.592 1.808.395.459.965.688 1.711.688.684 0 1.227-.171 1.633-.512.404-.342.607-.854.607-1.536 0-.555-.16-.977-.479-1.265s-.693-.517-1.12-.688l-3.104-1.12c-1.217-.427-2.134-1.029-2.752-1.808-.619-.779-.929-1.776-.929-2.993 0-.704.117-1.371.353-2a4.195 4.195 0 011.119-1.648c.513-.469 1.168-.843 1.969-1.12.8-.277 1.765-.416 2.896-.416 2.004 0 3.487.427 4.447 1.28.96.854 1.439 2.059 1.439 3.616v.705h-3.967c0-.896-.145-1.553-.433-1.969s-.795-.624-1.521-.624c-.555 0-1.039.155-1.455.464-.416.31-.625.773-.625 1.392 0 .427.134.812.4 1.152s.773.629 1.52.863l2.656.896c1.387.47 2.369 1.083 2.944 1.84.576.758.864 1.787.864 3.088 0 .918-.16 1.712-.48 2.384a4.682 4.682 0 01-1.328 1.681c-.564.447-1.237.768-2.016.96a10.81 10.81 0 01-2.576.288c-1.237 0-2.267-.118-3.088-.353s-1.472-.586-1.951-1.056c-.48-.469-.816-1.04-1.009-1.712s-.288-1.424-.288-2.256v-.608h3.969v.579z" id="plus"/></svg>